<svg xmlns="http://www.w3.org/2000/svg" width="840" height="306" viewBox="0 0 840 306" role="img" aria-label="The Membase client: hosted API or local engine"><defs><marker id="a" viewBox="0 0 10 10" refX="9" refY="5" markerWidth="7" markerHeight="7" orient="auto-start-reverse"><path d="M0 0L10 5L0 10z" fill="#8B949E"/></marker></defs><style>text{font-family:-apple-system, BlinkMacSystemFont, "Segoe UI", Helvetica, Arial, sans-serif;fill:#8B949E} .t{font-size:15px;font-weight:600;fill:#3E61FF} .h{font-size:15px;font-weight:700} .s{font-size:12.5px} .m{font-family:ui-monospace, SFMono-Regular, Menlo, Consolas, monospace;font-size:12px} .w{fill:#FFFFFF} .k{fill:#2A3FBF}</style><text class="t" x="0" y="18">One client, two places for the memory</text><rect x="0" y="40" width="230" height="112" rx="12" fill="#3E61FF"/><text class="h w" x="115.0" y="66" text-anchor="middle">Your code</text><text class="s w" x="115.0" y="86" text-anchor="middle">Python: Membase()</text><text class="s w" x="115.0" y="103" text-anchor="middle">TypeScript: new Membase()</text><text class="s w" x="115.0" y="120" text-anchor="middle">CLI: membase …</text><rect x="320" y="34" width="250" height="76" rx="12" fill="#E3E8FF"/><text class="h k" x="445.0" y="60" text-anchor="middle">Hosted</text><text class="m k" x="445.0" y="80" text-anchor="middle">api.app.membase.io/v1</text><rect x="320" y="136" width="250" height="76" rx="12" fill="#E3E8FF"/><text class="h k" x="445.0" y="162" text-anchor="middle">Local</text><text class="m k" x="445.0" y="182" text-anchor="middle">membase-core in-process</text><rect x="640" y="34" width="200" height="76" rx="12" fill="#E3E8FF"/><text class="h k" x="740.0" y="60" text-anchor="middle">Your Membase account</text><text class="s k" x="740.0" y="80" text-anchor="middle">containers · profile</text><rect x="640" y="136" width="200" height="76" rx="12" fill="#E3E8FF"/><text class="h k" x="740.0" y="162" text-anchor="middle">~/.membase</text><text class="m k" x="740.0" y="182" text-anchor="middle">SQLite + vector index</text><line x1="232" y1="76" x2="316" y2="72" stroke="#8B949E" stroke-width="1.6" marker-end="url(#a)"/><line x1="232" y1="120" x2="316" y2="172" stroke="#8B949E" stroke-width="1.6" marker-end="url(#a)"/><text class="m" x="274" y="60" text-anchor="middle">api key</text><text class="m" x="250" y="168" text-anchor="middle">local=True</text><line x1="572" y1="72" x2="636" y2="72" stroke="#8B949E" stroke-width="1.6" marker-end="url(#a)"/><line x1="572" y1="174" x2="636" y2="174" stroke="#8B949E" stroke-width="1.6" marker-end="url(#a)"/><rect x="320" y="238" width="250" height="62" rx="12" fill="#E3E8FF"/><text class="h k" x="445.0" y="264" text-anchor="middle">membase serve</text><text class="m k" x="445.0" y="284" text-anchor="middle">127.0.0.1:8787/v1, same routes</text><line x1="445" y1="238" x2="445" y2="216" stroke="#8B949E" stroke-width="1.6" stroke-dasharray="4 4" marker-end="url(#a)"/><text class="s" x="0" y="268">Other languages and tools reach</text><text class="s" x="0" y="285">local memory over HTTP:</text><line x1="212" y1="272" x2="316" y2="272" stroke="#8B949E" stroke-width="1.6" marker-end="url(#a)"/></svg>
