<svg xmlns="http://www.w3.org/2000/svg" width="840" height="286" viewBox="0 0 840 286" role="img" aria-label="Every AI, same memory: the assistant and Claude Code answer from one memory"><defs><marker id="a" viewBox="0 0 10 10" refX="9" refY="5" markerWidth="7" markerHeight="7" orient="auto-start-reverse"><path d="M0 0L10 5L0 10z" fill="#A3ACD1"/></marker><linearGradient id="p" x1="0" y1="0" x2="1" y2="1"><stop offset="0" stop-color="#E9EDFF"/><stop offset=".55" stop-color="#F6F7FD"/><stop offset="1" stop-color="#E4E1FB"/></linearGradient></defs><style>text{font-family:-apple-system, BlinkMacSystemFont, "Segoe UI", Helvetica, Arial, sans-serif}</style><rect width="840" height="286" rx="20" fill="url(#p)"/><rect x="26" y="42" width="320" height="214" rx="14" fill="#2A3FBF" opacity=".07"/><rect x="24" y="36" width="320" height="214" rx="14" fill="#FFFFFF"/><circle cx="46" cy="62" r="7" fill="#3E61FF"/><text x="60" y="67" style="font-size:14px;font-weight:700;fill:#12162B">My Assistant</text><rect x="88" y="86" width="236" height="56" rx="12" fill="#3E61FF"/><rect x="44" y="158" width="280" height="72" rx="12" fill="#F3F5FD"/><text x="102" y="109" style="font-size:13px;fill:#FFFFFF">Which identity provider will the</text><text x="102" y="128" style="font-size:13px;fill:#FFFFFF">Acme pilot use, and when?</text><text x="58" y="189" style="font-size:13px;fill:#12162B">Microsoft Entra ID (SAML), starting</text><text x="58" y="208" style="font-size:13px;fill:#12162B">10 November. From your Acme memory.</text><rect x="498" y="42" width="320" height="214" rx="14" fill="#2A3FBF" opacity=".07"/><rect x="496" y="36" width="320" height="214" rx="14" fill="#12162B"/><circle cx="516" cy="58" r="5" fill="#FF5F57"/><circle cx="532" cy="58" r="5" fill="#FEBC2E"/><circle cx="548" cy="58" r="5" fill="#28C840"/><text x="656" y="62" text-anchor="middle" style="font-family:ui-monospace, SFMono-Regular, Menlo, Consolas, monospace;font-size:12px;fill:#7C86B2">Claude Code</text><text x="516" y="112" style="font-family:ui-monospace, SFMono-Regular, Menlo, Consolas, monospace;font-size:12.5px;fill:#E6E9F5" xml:space="preserve">$ claude -p "Which identity provider</text><text x="516" y="134" style="font-family:ui-monospace, SFMono-Regular, Menlo, Consolas, monospace;font-size:12.5px;fill:#E6E9F5" xml:space="preserve">  will the Acme pilot use, and when?"</text><text x="516" y="178" style="font-family:ui-monospace, SFMono-Regular, Menlo, Consolas, monospace;font-size:12.5px;fill:#9DB0FF" xml:space="preserve">Microsoft Entra ID via SAML,</text><text x="516" y="200" style="font-family:ui-monospace, SFMono-Regular, Menlo, Consolas, monospace;font-size:12.5px;fill:#9DB0FF" xml:space="preserve">starting 10 November.</text><line x1="346" y1="143" x2="381" y2="143" stroke="#9DB0FF" stroke-width="1.8" stroke-dasharray="5 5"/><line x1="459" y1="143" x2="494" y2="143" stroke="#9DB0FF" stroke-width="1.8" stroke-dasharray="5 5"/><circle cx="420" cy="143" r="39" fill="#FFFFFF" stroke="#9DB0FF" stroke-width="2" opacity=".9"/><circle cx="420" cy="143" r="30" fill="#3E61FF"/><path d="M410.4 131.6 v9.6 M423.6 131.6 v9.6" stroke="#FFFFFF" stroke-width="3.0" stroke-linecap="round"/><path d="M403.5 145.4 q16.5 18.6 33.0 -3.0" fill="none" stroke="#FFFFFF" stroke-width="3.0" stroke-linecap="round"/><text x="420" y="214" text-anchor="middle" style="font-size:13px;font-weight:600;fill:#5B6280">Acme memory</text></svg>
