<svg xmlns="http://www.w3.org/2000/svg" width="840" height="284" viewBox="0 0 840 284" role="img" aria-label="Conversations, documents and agent traces"><defs><marker id="a" viewBox="0 0 10 10" refX="9" refY="5" markerWidth="7" markerHeight="7" orient="auto-start-reverse"><path d="M0 0L10 5L0 10z" fill="#A3ACD1"/></marker><linearGradient id="p" x1="0" y1="0" x2="1" y2="1"><stop offset="0" stop-color="#E9EDFF"/><stop offset=".55" stop-color="#F6F7FD"/><stop offset="1" stop-color="#E4E1FB"/></linearGradient></defs><style>text{font-family:-apple-system, BlinkMacSystemFont, "Segoe UI", Helvetica, Arial, sans-serif}</style><rect width="840" height="284" rx="20" fill="url(#p)"/><text x="24" y="38" style="font-family:ui-monospace, SFMono-Regular, Menlo, Consolas, monospace;font-size:12px;letter-spacing:.14em;fill:#3E61FF">WHAT EACH INPUT BECOMES</text><rect x="26" y="66" width="248" height="200" rx="14" fill="#2A3FBF" opacity=".07"/><rect x="24" y="60" width="248" height="200" rx="14" fill="#FFFFFF"/><text x="148.0" y="96" text-anchor="middle" style="font-size:15px;font-weight:700;fill:#12162B">A conversation</text><line x1="148.0" y1="108" x2="148.0" y2="130" stroke="#A3ACD1" stroke-width="1.8" marker-end="url(#a)"/><rect x="68.0" y="142" width="160" height="16" rx="8" fill="#E3E8FF"/><circle cx="80.0" cy="150" r="4" fill="#3E61FF"/><rect x="92.0" y="148" width="96" height="4" rx="2" fill="#9DB0FF"/><rect x="68.0" y="164" width="160" height="16" rx="8" fill="#E3E8FF"/><circle cx="80.0" cy="172" r="4" fill="#3E61FF"/><rect x="92.0" y="170" width="72" height="4" rx="2" fill="#9DB0FF"/><rect x="68.0" y="186" width="160" height="16" rx="8" fill="#E3E8FF"/><circle cx="80.0" cy="194" r="4" fill="#3E61FF"/><rect x="92.0" y="192" width="108" height="4" rx="2" fill="#9DB0FF"/><text x="148.0" y="236" text-anchor="middle" style="font-size:15px;font-weight:700;fill:#3E61FF">dated episodes</text><rect x="298" y="66" width="248" height="200" rx="14" fill="#2A3FBF" opacity=".07"/><rect x="296" y="60" width="248" height="200" rx="14" fill="#FFFFFF"/><text x="420.0" y="96" text-anchor="middle" style="font-size:15px;font-weight:700;fill:#12162B">A document</text><line x1="420.0" y1="108" x2="420.0" y2="130" stroke="#A3ACD1" stroke-width="1.8" marker-end="url(#a)"/><line x1="420.0" y1="156" x2="374.0" y2="168" stroke="#9DB0FF" stroke-width="1.8"/><line x1="420.0" y1="156" x2="466.0" y2="168" stroke="#9DB0FF" stroke-width="1.8"/><line x1="374.0" y1="182" x2="350.0" y2="194" stroke="#9DB0FF" stroke-width="1.8"/><line x1="374.0" y1="182" x2="398.0" y2="194" stroke="#9DB0FF" stroke-width="1.8"/><line x1="466.0" y1="182" x2="466.0" y2="194" stroke="#9DB0FF" stroke-width="1.8"/><rect x="394.0" y="142" width="52" height="14" rx="7" fill="#3E61FF"/><rect x="352.0" y="168" width="44" height="14" rx="7" fill="#9DB0FF"/><rect x="444.0" y="168" width="44" height="14" rx="7" fill="#9DB0FF"/><rect x="332.0" y="194" width="36" height="14" rx="7" fill="#E3E8FF"/><rect x="380.0" y="194" width="36" height="14" rx="7" fill="#E3E8FF"/><rect x="448.0" y="194" width="36" height="14" rx="7" fill="#E3E8FF"/><text x="420.0" y="236" text-anchor="middle" style="font-size:15px;font-weight:700;fill:#3E61FF">a topic tree</text><rect x="570" y="66" width="248" height="200" rx="14" fill="#2A3FBF" opacity=".07"/><rect x="568" y="60" width="248" height="200" rx="14" fill="#FFFFFF"/><text x="692.0" y="96" text-anchor="middle" style="font-size:15px;font-weight:700;fill:#12162B">An agent trace</text><line x1="692.0" y1="108" x2="692.0" y2="130" stroke="#A3ACD1" stroke-width="1.8" marker-end="url(#a)"/><rect x="608.0" y="142" width="72" height="54" rx="8" fill="#E3E8FF" stroke="#FFFFFF" stroke-width="2"/><rect x="620.0" y="150" width="72" height="54" rx="8" fill="#E3E8FF" stroke="#FFFFFF" stroke-width="2"/><rect x="630.0" y="162" width="48" height="4" rx="2" fill="#9DB0FF"/><rect x="630.0" y="172" width="38" height="4" rx="2" fill="#9DB0FF"/><rect x="630.0" y="182" width="28" height="4" rx="2" fill="#9DB0FF"/><line x1="696.0" y1="176" x2="714.0" y2="176" stroke="#A3ACD1" stroke-width="1.8" marker-end="url(#a)"/><rect x="718.0" y="156" width="58" height="40" rx="8" fill="#3E61FF"/><path d="M736.0 176 l7 7 l13 -14" stroke="#FFFFFF" stroke-width="3" fill="none" stroke-linecap="round" stroke-linejoin="round"/><text x="692.0" y="236" text-anchor="middle" style="font-size:15px;font-weight:700;fill:#3E61FF">cases and skills</text></svg>
